<?xml version="1.0" standalone="no"?>
<!DOCTYPE svg PUBLIC "-//W3C//DTD SVG 20010904//EN"
 "http://www.w3.org/TR/2001/REC-SVG-20010904/DTD/svg10.dtd">
<svg version="1.0" xmlns="http://www.w3.org/2000/svg"
 width="512.000000pt" height="512.000000pt" viewBox="0 0 512.000000 512.000000"
 preserveAspectRatio="xMidYMid meet">
<metadata>
Created by potrace 1.14, written by Peter Selinger 2001-2017
</metadata>
<g transform="translate(0.000000,512.000000) scale(0.100000,-0.100000)"
fill="#000000" stroke="none">
<path d="M4289 3233 c-6 -16 -56 -147 -110 -293 -55 -146 -104 -274 -109 -285
-5 -11 -55 -141 -110 -290 -56 -148 -121 -322 -146 -385 -24 -64 -44 -119 -44
-123 0 -4 35 -7 78 -7 l79 0 32 88 c36 94 88 232 321 847 84 220 158 417 166
438 l13 37 -80 0 c-78 0 -80 -1 -90 -27z"/>
<path d="M2210 3123 c-58 -10 -145 -49 -195 -87 -102 -79 -154 -162 -190 -302
-24 -91 -24 -266 -1 -354 54 -212 204 -358 396 -386 32 -5 140 -5 160 -1 8 2
31 7 50 11 55 13 143 63 185 106 l39 39 -50 55 c-27 29 -53 54 -57 55 -5 1
-27 -15 -50 -34 -106 -91 -280 -84 -383 16 -146 142 -142 509 7 644 51 46 98
66 169 72 71 6 126 -9 189 -52 28 -20 51 -32 51 -28 0 5 23 32 51 61 57 61 57
62 -24 115 -81 53 -150 74 -242 75 -44 0 -91 -2 -105 -5z"/>
<path d="M3190 3112 c-227 -60 -362 -256 -369 -537 -7 -276 115 -485 328 -560
60 -21 86 -25 158 -26 123 -1 229 37 317 115 l44 40 -50 58 c-28 32 -55 58
-59 58 -4 0 -21 -12 -36 -26 -15 -15 -53 -38 -83 -51 -98 -44 -225 -23 -304
51 -82 76 -121 201 -113 356 7 117 26 180 74 249 92 131 280 159 404 61 l36
-28 53 59 52 60 -27 29 c-32 33 -107 76 -167 94 -64 19 -183 18 -258 -2z"/>
<path d="M799 3106 c0 -16 -1 -1046 0 -1073 1 -21 5 -22 95 -22 65 0 95 4 98
12 2 7 4 117 3 245 l-1 232 36 0 c157 3 333 0 337 -4 3 -2 5 -112 4 -244 l0
-240 100 0 99 -1 -2 552 -3 552 -95 0 -95 0 -2 -170 c-1 -93 -2 -193 -3 -221
l0 -52 -172 0 c-95 -1 -180 1 -188 3 -14 4 -16 34 -15 213 1 114 0 212 -2 218
-5 15 -193 15 -194 0z"/>
<path d="M585 3006 c-11 -6 -147 -96 -302 -199 l-283 -187 0 -68 0 -67 296
-195 c163 -107 302 -198 309 -202 9 -6 12 13 12 78 l0 86 -56 37 c-31 20 -60
38 -66 41 -57 28 -336 223 -329 230 9 8 275 182 394 257 l56 35 1 84 c1 46 -2
84 -5 83 -4 -1 -16 -6 -27 -13z"/>
<path d="M4503 2925 c0 -84 1 -85 33 -110 18 -14 35 -25 38 -25 3 0 92 -57
198 -127 179 -118 191 -127 173 -140 -11 -8 -115 -77 -232 -153 l-211 -138 0
-81 c1 -45 5 -81 9 -81 7 0 477 309 572 375 37 26 37 27 37 93 l-1 67 -280
185 c-155 102 -294 193 -309 203 l-27 17 0 -85z"/>
</g>
</svg>
